inDegrees=no
num_controls=7
num_derivatives=13
num_iterations=92
num_multipliers=7
num_parameters=0
num_slacks=7
num_states=26
objective=0.445791
objective_accelerations=0.057036
objective_balance=0.003535
objective_effort=0.022939
objective_height=0.356716
objective_ligament=0.005566
solver_duration=1408.100998
status=Solve_Succeeded
success=true
DataType=double
version=3
OpenSimVersion=4.5
endheader
time	/jointset/ground_pelvis/pelvis_tilt/value	/jointset/ground_pelvis/pelvis_tx/value	/jointset/ground_pelvis/pelvis_ty/value	/jointset/hip_l/hip_flexion_l/value	/jointset/hip_l/hip_adduction_l/value	/jointset/hip_l/hip_rotation_l/value	/jointset/back/lumbar_extension/value	/jointset/patellofemoral_l/patellar_flexion_l/value	/jointset/knee_l/knee_flexion_l/value	/jointset/knee_l/knee_adduction_l/value	/jointset/knee_l/knee_rotation_l/value	/jointset/ankle_l/ankle_angle_l/value	/jointset/subtalar_l/subtalar_angle_l/value	/jointset/ground_pelvis/pelvis_tilt/speed	/jointset/ground_pelvis/pelvis_tx/speed	/jointset/ground_pelvis/pelvis_ty/speed	/jointset/hip_l/hip_flexion_l/speed	/jointset/hip_l/hip_adduction_l/speed	/jointset/hip_l/hip_rotation_l/speed	/jointset/back/lumbar_extension/speed	/jointset/patellofemoral_l/patellar_flexion_l/speed	/jointset/knee_l/knee_flexion_l/speed	/jointset/knee_l/knee_adduction_l/speed	/jointset/knee_l/knee_rotation_l/speed	/jointset/ankle_l/ankle_angle_l/speed	/jointset/subtalar_l/subtalar_angle_l/speed	/forceset/tau_hip_flexion_l	/forceset/tau_hip_adduction_l	/forceset/tau_hip_rotation_l	/forceset/tau_knee_flexion_l	/forceset/tau_ankle_angle_l	/forceset/tau_subtalar_angle_l	/forceset/tau_lumbar_extension	lambda_cid13_p0	lambda_cid13_p1	lambda_cid13_p2	lambda_cid13_p3	lambda_cid13_p4	lambda_cid13_p5	lambda_cid14_p0	/jointset/ground_pelvis/pelvis_tilt/accel	/jointset/ground_pelvis/pelvis_tx/accel	/jointset/ground_pelvis/pelvis_ty/accel	/jointset/hip_l/hip_flexion_l/accel	/jointset/hip_l/hip_adduction_l/accel	/jointset/hip_l/hip_rotation_l/accel	/jointset/back/lumbar_extension/accel	/jointset/patellofemoral_l/patellar_flexion_l/accel	/jointset/knee_l/knee_flexion_l/accel	/jointset/knee_l/knee_adduction_l/accel	/jointset/knee_l/knee_rotation_l/accel	/jointset/ankle_l/ankle_angle_l/accel	/jointset/subtalar_l/subtalar_angle_l/accel	gamma_cid13_p0	gamma_cid13_p1	gamma_cid13_p2	gamma_cid13_p3	gamma_cid13_p4	gamma_cid13_p5	gamma_cid14_p0
1	-0.5509026596385115	-0.08222435329536024	0.5764429060669914	1.830613374111828	-0.4690726607839387	0.0163495015332538	-0.2617817935967565	1.375396322873755	1.375396322873704	-0.09404641568004635	-0.174525454698439	0.2154926887485259	-0.0149553166687845	-0.0186482493840959	0.009983120341443857	0.0008970846246242653	0.004565950324776439	-0.002253175571485257	0.004815194516082492	5.84334153229438e-05	0.005428522955720586	0.005428522955719945	-0.004440687705893615	-0.0001778162178589286	0.01991450469542118	0.008612700639221876	-0.3329747302806574	0.01807556307587594	-0.0002951248341571966	-0.3022362003919856	0.04350813482377902	0.02843843526423721	0.2842950508889947	-25.96589261349209	-8.474831407972689	1.781027659476695	6.015543622277103	-641.8746790072012	-43.93633192377673	-1.649314735465844	1.530753705505301	0.2735249476848109	1.949803552854076	-6.805478012243389	-0.09211679794645139	-2.354188812456677	-0.01836321547152634	-5.2342660551065	-5.234266055106793	-0.5723721472238349	-0.03205076778752005	-0.6341668842580245	-0.448924435988347	4.82565971404633e-09	1.735498152459003e-08	-1.62719179418647e-08	3.06063731672014e-09	-1.069267479350237e-09	1.715246043224132e-08	3.418239986847967e-09
1.01	-0.5510135721310201	-0.08211091504253891	0.5765492268227892	1.830320087587796	-0.4690987528735538	0.01627861759090308	-0.2617810981466838	1.375188985211218	1.375188985211145	-0.09411649763280518	-0.174527574892202	0.2156602686958726	-0.01489020105729097	-0.003534862507384801	0.01270570174992295	0.02036396678497009	-0.0632151939883106	-0.002959382321810061	-0.01898674978153755	8.051559574497281e-05	-0.04689779940338275	-0.04689779940338265	-0.009575423151029673	-0.0002399070166132745	0.01359317091114962	0.00441273535374271	-0.3329030028997798	0.01818841815997811	-0.0003130629382101214	-0.3020762191222681	0.04331408531509787	0.02845782724255116	0.2842378932444494	-26.0169130819695	-8.477370180828594	1.784916405521529	5.978346207032221	-641.751695294551	-43.94640269309223	-1.654056014493167	1.501538129054136	0.2718014175251285	1.944663260700149	-6.763224749701262	-0.05899493929826381	-2.392417536350186	0.01247278418724832	-5.232075144142554	-5.232075144142286	-0.4839851318252584	0.007667026816062524	-0.6323630193285545	-0.4051904777716654	-3.238161190331247e-09	9.906260410959673e-09	2.840231464838328e-08	4.738466405557349e-09	-1.151663773765079e-08	6.786742479704391e-08	-8.74346957124584e-09
1.02	-0.5509733693646999	-0.08197021563961369	0.5768501229428056	1.829349231198864	-0.4691317314958163	0.01596987014598307	-0.2617801861049299	1.374458332361524	1.374458332361429	-0.09423791911775274	-0.174530124941397	0.215764386026613	-0.01486701667924096	0.01157480238133045	0.01543535036222331	0.03981215746832811	-0.130948022655795	-0.003630482101044224	-0.04275750599657813	0.0001017517516933982	-0.09923451447569834	-0.09923451447569677	-0.01470859414283624	-0.0002637873059507808	0.007221981374204397	0.0002264539505039653	-0.3328312755188941	0.01830127324407073	-0.0003310010423234531	-0.3019162378525518	0.04312003580641298	0.02847721922085171	0.2841807355999151	-26.07368547116793	-8.479029274369818	1.788810493942846	5.961286928651209	-641.7106685794859	-43.93411276338958	-1.670056184748573	1.530009307906146	0.2749383884490473	1.946065257456516	-6.795814883122854	-0.08509540372825741	-2.347951195940724	-0.01853242036628303	-5.23634459774897	-5.236344597749119	-0.5720592565579088	-0.02440866590402792	-0.6441380347927775	-0.4461876595401926	-1.032580522867392e-08	4.746878405817321e-09	7.3776180461862e-08	6.94698061660823e-09	-2.141586303076007e-08	1.16928144377296e-07	-2.007503429314731e-08
1.03	-0.5507820661606276	-0.081802158194936	0.5773453274702195	1.827701475729073	-0.469171055917722	0.01542379844843089	-0.2617790719086057	1.373204356644313	1.373204356644335	-0.09441058384824938	-0.1745324645065346	0.2158044955602789	-0.01488541056956665	0.02668667313615585	0.01817982793663593	0.05921765096696005	-0.1985754871282322	-0.004208716746769867	-0.06642849964991099	0.0001211475331727438	-0.1515530418381644	-0.1515530418381802	-0.01981496421938369	-0.0001703791121978278	0.0007870918317136298	-0.003880192119973457	-0.3324439825828724	0.01849569065785173	-0.0003828618619902148	-0.3016215274067492	0.04300976151937714	0.02855054223321403	0.2839039369911862	-26.08294725014683	-8.519778818043966	1.807331468765873	5.872833138035513	-641.3568564451125	-43.97614656175111	-1.697513955164742	1.501898007768057	0.2747576919989321	1.936120517079836	-6.742078391706666	-0.04034631500405021	-2.372442829683008	0.01218458028476417	-5.228462388066943	-5.228462388069452	-0.4785280834795033	0.0313072611652583	-0.6450882287963742	-0.3891611627508576	-1.740348827858767e-08	-3.891429961771801e-10	1.191571853898635e-07	9.160909981967416e-09	-3.130949500789801e-08	1.659719839087262e-07	-3.139812814937334e-08
1.04	-0.5504396198393062	-0.08160654492450187	0.5780342527568224	1.825378272382079	-0.4692153944500864	0.01464186293840133	-0.2617777619538902	1.371427424536966	1.371427424537101	-0.09463403271957652	-0.1745328516499444	0.2157798714355555	-0.01494412253698693	0.04180342583087444	0.02094651551351085	0.07855630930612274	-0.2660375980967701	-0.004633304192864324	-0.08993026848938292	0.0001409034298404739	-0.2038257925034911	-0.2038257925035233	-0.0248654223069859	0.0001266970475633588	-0.00572475030354371	-0.007837161468427424	-0.3320566896468413	0.01869010807160668	-0.0004347226817401368	-0.3013268169609491	0.04289948723233195	0.02862386524553895	0.2836271383824731	-26.09800046050693	-8.55960994301639	1.825815276333804	5.804798522729821	-641.0855252228635	-43.99639551280806	-1.736669955589315	1.530985695884796	0.279380388941494	1.932698225562668	-6.762744182342973	-0.05436596380198841	-2.314106233168509	-0.01846039732864686	-5.227189258321087	-5.227189258321064	-0.5608768587688469	0.01632492729767712	-0.6595285533461097	-0.4162523151354718	-2.491033065313625e-08	-7.01843710467661e-09	1.630197360084144e-07	1.111001005185036e-08	-4.13753343653907e-08	2.130403640253712e-07	-4.277471322259482e-08
